<?xml version="1.0" encoding="us-ascii" standalone="no"?><svg xmlns="http://www.w3.org/2000/svg" xmlns:xlink="http://www.w3.org/1999/xlink" contentStyleType="text/css" height="2325px" preserveAspectRatio="none" style="width:1209px;height:2325px;background:#FFFFFF;" version="1.1" viewBox="0 0 1209 2325" width="1209px" zoomAndPan="magnify"><defs/><g><rect fill="none" height="134.5527" style="stroke:#000000;stroke-width:1.5;" width="1163.5" x="30" y="84.4883"/><rect fill="none" height="358.7266" style="stroke:#000000;stroke-width:1.5;" width="717" x="20" y="233.041"/><rect fill="none" height="46.6211" style="stroke:#000000;stroke-width:1.5;" width="697" x="30" y="387.5938"/><rect fill="none" height="46.6211" style="stroke:#000000;stroke-width:1.5;" width="697" x="30" y="448.2148"/><rect fill="none" height="46.6211" style="stroke:#000000;stroke-width:1.5;" width="697" x="30" y="538.1465"/><rect fill="none" height="537.2344" style="stroke:#000000;stroke-width:1.5;" width="737" x="10" y="605.7676"/><rect fill="none" height="313.0605" style="stroke:#000000;stroke-width:1.5;" width="717" x="20" y="630.0781"/><rect fill="none" height="162.5078" style="stroke:#000000;stroke-width:1.5;" width="588" x="30" y="683.6992"/><rect fill="none" height="46.6211" style="stroke:#000000;stroke-width:1.5;" width="697" x="30" y="889.5176"/><rect fill="none" height="178.8633" style="stroke:#000000;stroke-width:1.5;" width="717" x="20" y="957.1387"/><rect fill="none" height="46.6211" style="stroke:#000000;stroke-width:1.5;" width="697" x="30" y="1082.3809"/><rect fill="none" height="342.3711" style="stroke:#000000;stroke-width:1.5;" width="1183.5" x="20" y="1157.002"/><rect fill="none" height="162.5078" style="stroke:#000000;stroke-width:1.5;" width="1163.5" x="30" y="1239.9336"/><rect fill="none" height="46.6211" style="stroke:#000000;stroke-width:1.5;" width="697" x="30" y="1445.752"/><rect fill="none" height="134.5527" style="stroke:#000000;stroke-width:1.5;" width="1163.5" x="30" y="1513.373"/><rect fill="none" height="300.1055" style="stroke:#000000;stroke-width:1.5;" width="1193.5" x="10" y="1661.9258"/><rect fill="none" height="268.7949" style="stroke:#000000;stroke-width:1.5;" width="1173.5" x="20" y="1686.2363"/><rect fill="none" height="59.6211" style="stroke:#000000;stroke-width:1.5;" width="186" x="30" y="1769.168"/><rect fill="none" height="46.6211" style="stroke:#000000;stroke-width:1.5;" width="697" x="30" y="1901.4102"/><rect fill="none" height="134.5527" style="stroke:#000000;stroke-width:1.5;" width="1163.5" x="30" y="1976.0313"/><rect fill="none" height="105.2422" style="stroke:#000000;stroke-width:1.5;" width="1163.5" x="30" y="2124.584"/><line style="stroke:#181818;stroke-width:0.5;stroke-dasharray:5.0,5.0;" x1="99" x2="99" y1="67.4883" y2="2246.8262"/><line style="stroke:#181818;stroke-width:0.5;stroke-dasharray:5.0,5.0;" x1="371" x2="371" y1="67.4883" y2="2246.8262"/><line style="stroke:#181818;stroke-width:0.5;stroke-dasharray:5.0,5.0;" x1="476" x2="476" y1="67.4883" y2="2246.8262"/><line style="stroke:#181818;stroke-width:0.5;stroke-dasharray:5.0,5.0;" x1="565" x2="565" y1="67.4883" y2="2246.8262"/><line style="stroke:#181818;stroke-width:0.5;stroke-dasharray:5.0,5.0;" x1="667" x2="667" y1="67.4883" y2="2246.8262"/><line style="stroke:#181818;stroke-width:0.5;stroke-dasharray:5.0,5.0;" x1="789" x2="789" y1="67.4883" y2="2246.8262"/><line style="stroke:#181818;stroke-width:0.5;stroke-dasharray:5.0,5.0;" x1="1131.5" x2="1131.5" y1="67.4883" y2="2246.8262"/><rect fill="#E2E2F0" height="30.4883" rx="2.5" ry="2.5" style="stroke:#181818;stroke-width:0.5;" width="119" x="40" y="36"/><text fill="#000000" font-family="sans-serif" font-size="14" lengthAdjust="spacing" textLength="105" x="47" y="56.5352">GP2GP Adaptor</text><rect fill="#E2E2F0" height="30.4883" rx="2.5" ry="2.5" style="stroke:#181818;stroke-width:0.5;" width="119" x="40" y="2245.8262"/><text fill="#000000" font-family="sans-serif" font-size="14" lengthAdjust="spacing" textLength="105" x="47" y="2266.3613">GP2GP Adaptor</text><rect fill="#E2E2F0" height="30.4883" rx="2.5" ry="2.5" style="stroke:#181818;stroke-width:0.5;" width="117" x="313" y="36"/><text fill="#000000" font-family="sans-serif" font-size="14" lengthAdjust="spacing" textLength="103" x="320" y="56.5352">GPC Consumer</text><rect fill="#E2E2F0" height="30.4883" rx="2.5" ry="2.5" style="stroke:#181818;stroke-width:0.5;" width="117" x="313" y="2245.8262"/><text fill="#000000" font-family="sans-serif" font-size="14" lengthAdjust="spacing" textLength="103" x="320" y="2266.3613">GPC Consumer</text><text fill="#000000" font-family="sans-serif" font-size="14" lengthAdjust="spacing" textLength="66" x="440" y="64.5352">MongoDB</text><path d="M458,15 C458,5 476,5 476,5 C476,5 494,5 494,15 L494,41 C494,51 476,51 476,51 C476,51 458,51 458,41 L458,15 " fill="#E2E2F0" style="stroke:#181818;stroke-width:1.5;"/><path d="M458,15 C458,25 476,25 476,25 C476,25 494,25 494,15 " fill="none" style="stroke:#181818;stroke-width:1.5;"/><text fill="#000000" font-family="sans-serif" font-size="14" lengthAdjust="spacing" textLength="66" x="440" y="2259.3613">MongoDB</text><path d="M458,2272.3145 C458,2262.3145 476,2262.3145 476,2262.3145 C476,2262.3145 494,2262.3145 494,2272.3145 L494,2298.3145 C494,2308.3145 476,2308.3145 476,2308.3145 C476,2308.3145 458,2308.3145 458,2298.3145 L458,2272.3145 " fill="#E2E2F0" style="stroke:#181818;stroke-width:1.5;"/><path d="M458,2272.3145 C458,2282.3145 476,2282.3145 476,2282.3145 C476,2282.3145 494,2282.3145 494,2272.3145 " fill="none" style="stroke:#181818;stroke-width:1.5;"/><text fill="#000000" font-family="sans-serif" font-size="14" lengthAdjust="spacing" textLength="80" x="522" y="64.5352">File storage</text><path d="M547,15 C547,5 565,5 565,5 C565,5 583,5 583,15 L583,41 C583,51 565,51 565,51 C565,51 547,51 547,41 L547,15 " fill="#E2E2F0" style="stroke:#181818;stroke-width:1.5;"/><path d="M547,15 C547,25 565,25 565,25 C565,25 583,25 583,15 " fill="none" style="stroke:#181818;stroke-width:1.5;"/><text fill="#000000" font-family="sans-serif" font-size="14" lengthAdjust="spacing" textLength="80" x="522" y="2259.3613">File storage</text><path d="M547,2272.3145 C547,2262.3145 565,2262.3145 565,2262.3145 C565,2262.3145 583,2262.3145 583,2272.3145 L583,2298.3145 C583,2308.3145 565,2308.3145 565,2308.3145 C565,2308.3145 547,2308.3145 547,2298.3145 L547,2272.3145 " fill="#E2E2F0" style="stroke:#181818;stroke-width:1.5;"/><path d="M547,2272.3145 C547,2282.3145 565,2282.3145 565,2282.3145 C565,2282.3145 583,2282.3145 583,2272.3145 " fill="none" style="stroke:#181818;stroke-width:1.5;"/><path d="M623,41 L712,41 C717,41 717,54.2441 717,54.2441 C717,54.2441 717,67.4883 712,67.4883 L623,67.4883 C618,67.4883 618,54.2441 618,54.2441 C618,54.2441 618,41 623,41 " fill="#E2E2F0" style="stroke:#181818;stroke-width:0.5;"/><path d="M712,41 C707,41 707,54.2441 707,54.2441 C707,67.4883 712,67.4883 712,67.4883 " fill="none" style="stroke:#181818;stroke-width:0.5;"/><text fill="#000000" font-family="sans-serif" font-size="14" lengthAdjust="spacing" textLength="79" x="623" y="59.5352">Task queue</text><path d="M623,2245.8262 L712,2245.8262 C717,2245.8262 717,2259.0703 717,2259.0703 C717,2259.0703 717,2272.3145 712,2272.3145 L623,2272.3145 C618,2272.3145 618,2259.0703 618,2259.0703 C618,2259.0703 618,2245.8262 623,2245.8262 " fill="#E2E2F0" style="stroke:#181818;stroke-width:0.5;"/><path d="M712,2245.8262 C707,2245.8262 707,2259.0703 707,2259.0703 C707,2272.3145 712,2272.3145 712,2272.3145 " fill="none" style="stroke:#181818;stroke-width:0.5;"/><text fill="#000000" font-family="sans-serif" font-size="14" lengthAdjust="spacing" textLength="79" x="623" y="2264.3613">Task queue</text><path d="M732,41 L847,41 C852,41 852,54.2441 852,54.2441 C852,54.2441 852,67.4883 847,67.4883 L732,67.4883 C727,67.4883 727,54.2441 727,54.2441 C727,54.2441 727,41 732,41 " fill="#E2E2F0" style="stroke:#181818;stroke-width:0.5;"/><path d="M847,41 C842,41 842,54.2441 842,54.2441 C842,67.4883 847,67.4883 847,67.4883 " fill="none" style="stroke:#181818;stroke-width:0.5;"/><text fill="#000000" font-family="sans-serif" font-size="14" lengthAdjust="spacing" textLength="105" x="732" y="59.5352">Inbound queue</text><path d="M732,2245.8262 L847,2245.8262 C852,2245.8262 852,2259.0703 852,2259.0703 C852,2259.0703 852,2272.3145 847,2272.3145 L732,2272.3145 C727,2272.3145 727,2259.0703 727,2259.0703 C727,2259.0703 727,2245.8262 732,2245.8262 " fill="#E2E2F0" style="stroke:#181818;stroke-width:0.5;"/><path d="M847,2245.8262 C842,2245.8262 842,2259.0703 842,2259.0703 C842,2272.3145 847,2272.3145 847,2272.3145 " fill="none" style="stroke:#181818;stroke-width:0.5;"/><text fill="#000000" font-family="sans-serif" font-size="14" lengthAdjust="spacing" textLength="105" x="732" y="2264.3613">Inbound queue</text><rect fill="#E2E2F0" height="30.4883" rx="2.5" ry="2.5" style="stroke:#181818;stroke-width:0.5;" width="104" x="1079.5" y="36"/><text fill="#000000" font-family="sans-serif" font-size="14" lengthAdjust="spacing" textLength="90" x="1086.5" y="56.5352">MHS Adaptor</text><rect fill="#E2E2F0" height="30.4883" rx="2.5" ry="2.5" style="stroke:#181818;stroke-width:0.5;" width="104" x="1079.5" y="2245.8262"/><text fill="#000000" font-family="sans-serif" font-size="14" lengthAdjust="spacing" textLength="90" x="1086.5" y="2266.3613">MHS Adaptor</text><path d="M30,84.4883 L268,84.4883 L268,91.7988 L258,101.7988 L30,101.7988 L30,84.4883 " fill="#EEEEEE" style="stroke:#000000;stroke-width:1.5;"/><rect fill="none" height="134.5527" style="stroke:#000000;stroke-width:1.5;" width="1163.5" x="30" y="84.4883"/><text fill="#000000" font-family="sans-serif" font-size="13" font-weight="bold" lengthAdjust="spacing" textLength="193" x="45" y="98.0566">Receive EHR Extract Request</text><polygon fill="#181818" points="800.5,119.1094,790.5,123.1094,800.5,127.1094,796.5,123.1094" style="stroke:#181818;stroke-width:1.0;"/><line style="stroke:#181818;stroke-width:1.0;" x1="794.5" x2="1130.5" y1="123.1094" y2="123.1094"/><text fill="#000000" font-family="sans-serif" font-size="13" lengthAdjust="spacing" textLength="286" x="806.5" y="118.3672">Enqueue EHR Request (RCMR_IN010000UK05)</text><polygon fill="#181818" points="777.5,148.4199,787.5,152.4199,777.5,156.4199,781.5,152.4199" style="stroke:#181818;stroke-width:1.0;"/><line style="stroke:#181818;stroke-width:1.0;" x1="99.5" x2="783.5" y1="152.4199" y2="152.4199"/><text fill="#000000" font-family="sans-serif" font-size="13" lengthAdjust="spacing" textLength="55" x="106.5" y="147.6777">Dequeue</text><polygon fill="#181818" points="464,177.7305,474,181.7305,464,185.7305,468,181.7305" style="stroke:#181818;stroke-width:1.0;"/><line style="stroke:#181818;stroke-width:1.0;" x1="99.5" x2="470" y1="181.7305" y2="181.7305"/><text fill="#000000" font-family="sans-serif" font-size="13" lengthAdjust="spacing" textLength="110" x="106.5" y="176.9883">Save new transfer</text><polygon fill="#181818" points="655.5,207.041,665.5,211.041,655.5,215.041,659.5,211.041" style="stroke:#181818;stroke-width:1.0;"/><line style="stroke:#181818;stroke-width:1.0;" x1="99.5" x2="661.5" y1="211.041" y2="211.041"/><text fill="#000000" font-family="sans-serif" font-size="13" lengthAdjust="spacing" textLength="202" x="106.5" y="206.2988">Enqueue GET GPC Structure task</text><path d="M20,233.041 L185,233.041 L185,240.3516 L175,250.3516 L20,250.3516 L20,233.041 " fill="#EEEEEE" style="stroke:#000000;stroke-width:1.5;"/><rect fill="none" height="358.7266" style="stroke:#000000;stroke-width:1.5;" width="717" x="20" y="233.041"/><text fill="#000000" font-family="sans-serif" font-size="13" font-weight="bold" lengthAdjust="spacing" textLength="120" x="35" y="246.6094">Get GPC Structure</text><polygon fill="#181818" points="655.5,267.6621,665.5,271.6621,655.5,275.6621,659.5,271.6621" style="stroke:#181818;stroke-width:1.0;"/><line style="stroke:#181818;stroke-width:1.0;" x1="99.5" x2="661.5" y1="271.6621" y2="271.6621"/><text fill="#000000" font-family="sans-serif" font-size="13" lengthAdjust="spacing" textLength="55" x="106.5" y="266.9199">Dequeue</text><polygon fill="#181818" points="359.5,296.9727,369.5,300.9727,359.5,304.9727,363.5,300.9727" style="stroke:#181818;stroke-width:1.0;"/><line style="stroke:#181818;stroke-width:1.0;" x1="99.5" x2="365.5" y1="300.9727" y2="300.9727"/><text fill="#000000" font-family="sans-serif" font-size="13" lengthAdjust="spacing" textLength="248" x="106.5" y="296.2305">POST ${gpc.migrateStructuredEndpoint}</text><polygon fill="#181818" points="110.5,326.2832,100.5,330.2832,110.5,334.2832,106.5,330.2832" style="stroke:#181818;stroke-width:1.0;"/><line style="stroke:#181818;stroke-width:1.0;stroke-dasharray:2.0,2.0;" x1="104.5" x2="370.5" y1="330.2832" y2="330.2832"/><text fill="#000000" font-family="sans-serif" font-size="13" lengthAdjust="spacing" textLength="75" x="116.5" y="325.541">FHIR Bundle</text><line style="stroke:#181818;stroke-width:1.0;" x1="99.5" x2="141.5" y1="359.5938" y2="359.5938"/><line style="stroke:#181818;stroke-width:1.0;" x1="141.5" x2="141.5" y1="359.5938" y2="372.5938"/><line style="stroke:#181818;stroke-width:1.0;" x1="100.5" x2="141.5" y1="372.5938" y2="372.5938"/><polygon fill="#181818" points="110.5,368.5938,100.5,372.5938,110.5,376.5938,106.5,372.5938" style="stroke:#181818;stroke-width:1.0;"/><text fill="#000000" font-family="sans-serif" font-size="13" lengthAdjust="spacing" textLength="137" x="106.5" y="354.8516">Translate FHIR to HL7</text><path d="M30,387.5938 L104,387.5938 L104,394.9043 L94,404.9043 L30,404.9043 L30,387.5938 " fill="#EEEEEE" style="stroke:#000000;stroke-width:1.5;"/><rect fill="none" height="46.6211" style="stroke:#000000;stroke-width:1.5;" width="697" x="30" y="387.5938"/><text fill="#000000" font-family="sans-serif" font-size="13" font-weight="bold" lengthAdjust="spacing" textLength="29" x="45" y="401.1621">loop</text><polygon fill="#181818" points="655.5,422.2148,665.5,426.2148,655.5,430.2148,659.5,426.2148" style="stroke:#181818;stroke-width:1.0;"/><line style="stroke:#181818;stroke-width:1.0;" x1="99.5" x2="661.5" y1="426.2148" y2="426.2148"/><text fill="#000000" font-family="sans-serif" font-size="13" lengthAdjust="spacing" textLength="217" x="106.5" y="421.4727">Enqueue GET GPC Documents task</text><path d="M30,448.2148 L104,448.2148 L104,455.5254 L94,465.5254 L30,465.5254 L30,448.2148 " fill="#EEEEEE" style="stroke:#000000;stroke-width:1.5;"/><rect fill="none" height="46.6211" style="stroke:#000000;stroke-width:1.5;" width="697" x="30" y="448.2148"/><text fill="#000000" font-family="sans-serif" font-size="13" font-weight="bold" lengthAdjust="spacing" textLength="29" x="45" y="461.7832">loop</text><polygon fill="#181818" points="655.5,482.8359,665.5,486.8359,655.5,490.8359,659.5,486.8359" style="stroke:#181818;stroke-width:1.0;"/><line style="stroke:#181818;stroke-width:1.0;" x1="99.5" x2="661.5" y1="486.8359" y2="486.8359"/><text fill="#000000" font-family="sans-serif" font-size="13" lengthAdjust="spacing" textLength="244" x="106.5" y="482.0938">Enqueue GET Absent Attachments task</text><polygon fill="#181818" points="464,519.1465,474,523.1465,464,527.1465,468,523.1465" style="stroke:#181818;stroke-width:1.0;"/><line style="stroke:#181818;stroke-width:1.0;" x1="99.5" x2="470" y1="523.1465" y2="523.1465"/><text fill="#000000" font-family="sans-serif" font-size="13" lengthAdjust="spacing" textLength="140" x="106.5" y="518.4043">Update transfer status</text><path d="M30,538.1465 L97,538.1465 L97,545.457 L87,555.457 L30,555.457 L30,538.1465 " fill="#EEEEEE" style="stroke:#000000;stroke-width:1.5;"/><rect fill="none" height="46.6211" style="stroke:#000000;stroke-width:1.5;" width="697" x="30" y="538.1465"/><text fill="#000000" font-family="sans-serif" font-size="13" font-weight="bold" lengthAdjust="spacing" textLength="22" x="45" y="551.7148">opt</text><text fill="#000000" font-family="sans-serif" font-size="11" font-weight="bold" lengthAdjust="spacing" textLength="213" x="112" y="550.7813">[Record translated and no documents]</text><polygon fill="#181818" points="655.5,572.7676,665.5,576.7676,655.5,580.7676,659.5,576.7676" style="stroke:#181818;stroke-width:1.0;"/><line style="stroke:#181818;stroke-width:1.0;" x1="99.5" x2="661.5" y1="576.7676" y2="576.7676"/><text fill="#000000" font-family="sans-serif" font-size="13" lengthAdjust="spacing" textLength="228" x="106.5" y="572.0254">Enqueue Send EHR Core Extract task</text><path d="M10,605.7676 L329,605.7676 L329,613.0781 L319,623.0781 L10,623.0781 L10,605.7676 " fill="#EEEEEE" style="stroke:#000000;stroke-width:1.5;"/><rect fill="none" height="537.2344" style="stroke:#000000;stroke-width:1.5;" width="737" x="10" y="605.7676"/><text fill="#000000" font-family="sans-serif" font-size="13" font-weight="bold" lengthAdjust="spacing" textLength="270" x="25" y="619.3359">Get documents and absent attachments</text><text fill="#000000" font-family="sans-serif" font-size="11" font-weight="bold" lengthAdjust="spacing" textLength="50" x="344" y="618.4023">[parallel]</text><path d="M20,630.0781 L94,630.0781 L94,637.3887 L84,647.3887 L20,647.3887 L20,630.0781 " fill="#EEEEEE" style="stroke:#000000;stroke-width:1.5;"/><rect fill="none" height="313.0605" style="stroke:#000000;stroke-width:1.5;" width="717" x="20" y="630.0781"/><text fill="#000000" font-family="sans-serif" font-size="13" font-weight="bold" lengthAdjust="spacing" textLength="29" x="35" y="643.6465">loop</text><text fill="#000000" font-family="sans-serif" font-size="11" font-weight="bold" lengthAdjust="spacing" textLength="125" x="109" y="642.7129">[GET GPC Documents]</text><polygon fill="#181818" points="359.5,664.6992,369.5,668.6992,359.5,672.6992,363.5,668.6992" style="stroke:#181818;stroke-width:1.0;"/><line style="stroke:#181818;stroke-width:1.0;" x1="99.5" x2="365.5" y1="668.6992" y2="668.6992"/><text fill="#000000" font-family="sans-serif" font-size="13" lengthAdjust="spacing" textLength="93" x="106.5" y="663.957">GET Document</text><path d="M30,683.6992 L92,683.6992 L92,691.0098 L82,701.0098 L30,701.0098 L30,683.6992 " fill="#EEEEEE" style="stroke:#000000;stroke-width:1.5;"/><rect fill="none" height="162.5078" style="stroke:#000000;stroke-width:1.5;" width="588" x="30" y="683.6992"/><text fill="#000000" font-family="sans-serif" font-size="13" font-weight="bold" lengthAdjust="spacing" textLength="17" x="45" y="697.2676">alt</text><text fill="#000000" font-family="sans-serif" font-size="11" font-weight="bold" lengthAdjust="spacing" textLength="51" x="107" y="696.334">[success]</text><polygon fill="#181818" points="110.5,718.3203,100.5,722.3203,110.5,726.3203,106.5,722.3203" style="stroke:#181818;stroke-width:1.0;"/><line style="stroke:#181818;stroke-width:1.0;stroke-dasharray:2.0,2.0;" x1="104.5" x2="370.5" y1="722.3203" y2="722.3203"/><text fill="#000000" font-family="sans-serif" font-size="13" lengthAdjust="spacing" textLength="71" x="116.5" y="717.5781">FHIR Binary</text><polygon fill="#181818" points="553,747.6309,563,751.6309,553,755.6309,557,751.6309" style="stroke:#181818;stroke-width:1.0;"/><line style="stroke:#181818;stroke-width:1.0;" x1="99.5" x2="559" y1="751.6309" y2="751.6309"/><text fill="#000000" font-family="sans-serif" font-size="13" lengthAdjust="spacing" textLength="113" x="106.5" y="746.8887">Upload Document</text><line style="stroke:#000000;stroke-width:1.0;stroke-dasharray:2.0,2.0;" x1="30" x2="618" y1="760.6309" y2="760.6309"/><text fill="#000000" font-family="sans-serif" font-size="11" font-weight="bold" lengthAdjust="spacing" textLength="45" x="35" y="771.2656">[failure]</text><line style="stroke:#181818;stroke-width:1.0;" x1="99.5" x2="141.5" y1="795.8965" y2="795.8965"/><line style="stroke:#181818;stroke-width:1.0;" x1="141.5" x2="141.5" y1="795.8965" y2="808.8965"/><line style="stroke:#181818;stroke-width:1.0;" x1="100.5" x2="141.5" y1="808.8965" y2="808.8965"/><polygon fill="#181818" points="110.5,804.8965,100.5,808.8965,110.5,812.8965,106.5,808.8965" style="stroke:#181818;stroke-width:1.0;"/><text fill="#000000" font-family="sans-serif" font-size="13" lengthAdjust="spacing" textLength="242" x="106.5" y="791.1543">Create Absent Attachment placeholder</text><polygon fill="#181818" points="553,834.207,563,838.207,553,842.207,557,838.207" style="stroke:#181818;stroke-width:1.0;"/><line style="stroke:#181818;stroke-width:1.0;" x1="99.5" x2="559" y1="838.207" y2="838.207"/><text fill="#000000" font-family="sans-serif" font-size="13" lengthAdjust="spacing" textLength="169" x="106.5" y="833.4648">Upload Absent Attachment</text><polygon fill="#181818" points="464,870.5176,474,874.5176,464,878.5176,468,874.5176" style="stroke:#181818;stroke-width:1.0;"/><line style="stroke:#181818;stroke-width:1.0;" x1="99.5" x2="470" y1="874.5176" y2="874.5176"/><text fill="#000000" font-family="sans-serif" font-size="13" lengthAdjust="spacing" textLength="140" x="106.5" y="869.7754">Update transfer status</text><path d="M30,889.5176 L97,889.5176 L97,896.8281 L87,906.8281 L30,906.8281 L30,889.5176 " fill="#EEEEEE" style="stroke:#000000;stroke-width:1.5;"/><rect fill="none" height="46.6211" style="stroke:#000000;stroke-width:1.5;" width="697" x="30" y="889.5176"/><text fill="#000000" font-family="sans-serif" font-size="13" font-weight="bold" lengthAdjust="spacing" textLength="22" x="45" y="903.0859">opt</text><text fill="#000000" font-family="sans-serif" font-size="11" font-weight="bold" lengthAdjust="spacing" textLength="258" x="112" y="902.1523">[All documents and absent attachments ready]</text><polygon fill="#181818" points="655.5,924.1387,665.5,928.1387,655.5,932.1387,659.5,928.1387" style="stroke:#181818;stroke-width:1.0;"/><line style="stroke:#181818;stroke-width:1.0;" x1="99.5" x2="661.5" y1="928.1387" y2="928.1387"/><text fill="#000000" font-family="sans-serif" font-size="13" lengthAdjust="spacing" textLength="228" x="106.5" y="923.3965">Enqueue Send EHR Core Extract task</text><path d="M20,957.1387 L94,957.1387 L94,964.4492 L84,974.4492 L20,974.4492 L20,957.1387 " fill="#EEEEEE" style="stroke:#000000;stroke-width:1.5;"/><rect fill="none" height="178.8633" style="stroke:#000000;stroke-width:1.5;" width="717" x="20" y="957.1387"/><text fill="#000000" font-family="sans-serif" font-size="13" font-weight="bold" lengthAdjust="spacing" textLength="29" x="35" y="970.707">loop</text><text fill="#000000" font-family="sans-serif" font-size="11" font-weight="bold" lengthAdjust="spacing" textLength="161" x="109" y="969.7734">[Prepare absent attachments]</text><line style="stroke:#181818;stroke-width:1.0;" x1="99.5" x2="141.5" y1="995.7598" y2="995.7598"/><line style="stroke:#181818;stroke-width:1.0;" x1="141.5" x2="141.5" y1="995.7598" y2="1008.7598"/><line style="stroke:#181818;stroke-width:1.0;" x1="100.5" x2="141.5" y1="1008.7598" y2="1008.7598"/><polygon fill="#181818" points="110.5,1004.7598,100.5,1008.7598,110.5,1012.7598,106.5,1008.7598" style="stroke:#181818;stroke-width:1.0;"/><text fill="#000000" font-family="sans-serif" font-size="13" lengthAdjust="spacing" textLength="242" x="106.5" y="991.0176">Create Absent Attachment placeholder</text><polygon fill="#181818" points="553,1034.0703,563,1038.0703,553,1042.0703,557,1038.0703" style="stroke:#181818;stroke-width:1.0;"/><line style="stroke:#181818;stroke-width:1.0;" x1="99.5" x2="559" y1="1038.0703" y2="1038.0703"/><text fill="#000000" font-family="sans-serif" font-size="13" lengthAdjust="spacing" textLength="169" x="106.5" y="1033.3281">Upload Absent Attachment</text><polygon fill="#181818" points="464,1063.3809,474,1067.3809,464,1071.3809,468,1067.3809" style="stroke:#181818;stroke-width:1.0;"/><line style="stroke:#181818;stroke-width:1.0;" x1="99.5" x2="470" y1="1067.3809" y2="1067.3809"/><text fill="#000000" font-family="sans-serif" font-size="13" lengthAdjust="spacing" textLength="140" x="106.5" y="1062.6387">Update transfer status</text><path d="M30,1082.3809 L97,1082.3809 L97,1089.6914 L87,1099.6914 L30,1099.6914 L30,1082.3809 " fill="#EEEEEE" style="stroke:#000000;stroke-width:1.5;"/><rect fill="none" height="46.6211" style="stroke:#000000;stroke-width:1.5;" width="697" x="30" y="1082.3809"/><text fill="#000000" font-family="sans-serif" font-size="13" font-weight="bold" lengthAdjust="spacing" textLength="22" x="45" y="1095.9492">opt</text><text fill="#000000" font-family="sans-serif" font-size="11" font-weight="bold" lengthAdjust="spacing" textLength="258" x="112" y="1095.0156">[All documents and absent attachments ready]</text><polygon fill="#181818" points="655.5,1117.002,665.5,1121.002,655.5,1125.002,659.5,1121.002" style="stroke:#181818;stroke-width:1.0;"/><line style="stroke:#181818;stroke-width:1.0;" x1="99.5" x2="661.5" y1="1121.002" y2="1121.002"/><text fill="#000000" font-family="sans-serif" font-size="13" lengthAdjust="spacing" textLength="228" x="106.5" y="1116.2598">Enqueue Send EHR Core Extract task</text><path d="M20,1157.002 L215,1157.002 L215,1164.3125 L205,1174.3125 L20,1174.3125 L20,1157.002 " fill="#EEEEEE" style="stroke:#000000;stroke-width:1.5;"/><rect fill="none" height="342.3711" style="stroke:#000000;stroke-width:1.5;" width="1183.5" x="20" y="1157.002"/><text fill="#000000" font-family="sans-serif" font-size="13" font-weight="bold" lengthAdjust="spacing" textLength="150" x="35" y="1170.5703">Send EHR Core Extract</text><polygon fill="#181818" points="553,1191.623,563,1195.623,553,1199.623,557,1195.623" style="stroke:#181818;stroke-width:1.0;"/><line style="stroke:#181818;stroke-width:1.0;" x1="99.5" x2="559" y1="1195.623" y2="1195.623"/><text fill="#000000" font-family="sans-serif" font-size="13" lengthAdjust="spacing" textLength="140" x="106.5" y="1190.8809">Download EHR Extract</text><polygon fill="#181818" points="464,1220.9336,474,1224.9336,464,1228.9336,468,1224.9336" style="stroke:#181818;stroke-width:1.0;"/><line style="stroke:#181818;stroke-width:1.0;" x1="99.5" x2="470" y1="1224.9336" y2="1224.9336"/><text fill="#000000" font-family="sans-serif" font-size="13" lengthAdjust="spacing" textLength="140" x="106.5" y="1220.1914">Update transfer status</text><path d="M30,1239.9336 L92,1239.9336 L92,1247.2441 L82,1257.2441 L30,1257.2441 L30,1239.9336 " fill="#EEEEEE" style="stroke:#000000;stroke-width:1.5;"/><rect fill="none" height="162.5078" style="stroke:#000000;stroke-width:1.5;" width="1163.5" x="30" y="1239.9336"/><text fill="#000000" font-family="sans-serif" font-size="13" font-weight="bold" lengthAdjust="spacing" textLength="17" x="45" y="1253.502">alt</text><text fill="#000000" font-family="sans-serif" font-size="11" font-weight="bold" lengthAdjust="spacing" textLength="108" x="107" y="1252.5684">[Large EHR Extract]</text><line style="stroke:#181818;stroke-width:1.0;" x1="99.5" x2="141.5" y1="1278.5547" y2="1278.5547"/><line style="stroke:#181818;stroke-width:1.0;" x1="141.5" x2="141.5" y1="1278.5547" y2="1291.5547"/><line style="stroke:#181818;stroke-width:1.0;" x1="100.5" x2="141.5" y1="1291.5547" y2="1291.5547"/><polygon fill="#181818" points="110.5,1287.5547,100.5,1291.5547,110.5,1295.5547,106.5,1291.5547" style="stroke:#181818;stroke-width:1.0;"/><text fill="#000000" font-family="sans-serif" font-size="13" lengthAdjust="spacing" textLength="140" x="106.5" y="1273.8125">Compress EHR Extract</text><polygon fill="#181818" points="553,1316.8652,563,1320.8652,553,1324.8652,557,1320.8652" style="stroke:#181818;stroke-width:1.0;"/><line style="stroke:#181818;stroke-width:1.0;" x1="99.5" x2="559" y1="1320.8652" y2="1320.8652"/><text fill="#000000" font-family="sans-serif" font-size="13" lengthAdjust="spacing" textLength="288" x="106.5" y="1316.123">Upload Compressed EHR Extract as document</text><polygon fill="#181818" points="1119.5,1346.1758,1129.5,1350.1758,1119.5,1354.1758,1123.5,1350.1758" style="stroke:#181818;stroke-width:1.0;"/><line style="stroke:#181818;stroke-width:1.0;" x1="99.5" x2="1125.5" y1="1350.1758" y2="1350.1758"/><text fill="#000000" font-family="sans-serif" font-size="13" lengthAdjust="spacing" textLength="315" x="106.5" y="1345.4336">Send EHR Extract Skeleton (RCMR_IN030000UK06)</text><line style="stroke:#000000;stroke-width:1.0;stroke-dasharray:2.0,2.0;" x1="30" x2="1193.5" y1="1359.1758" y2="1359.1758"/><text fill="#000000" font-family="sans-serif" font-size="11" font-weight="bold" lengthAdjust="spacing" textLength="92" x="35" y="1369.8105">[Regular extract]</text><polygon fill="#181818" points="1119.5,1390.4414,1129.5,1394.4414,1119.5,1398.4414,1123.5,1394.4414" style="stroke:#181818;stroke-width:1.0;"/><line style="stroke:#181818;stroke-width:1.0;" x1="99.5" x2="1125.5" y1="1394.4414" y2="1394.4414"/><text fill="#000000" font-family="sans-serif" font-size="13" lengthAdjust="spacing" textLength="257" x="106.5" y="1389.6992">Send EHR Extract (RCMR_IN030000UK06)</text><polygon fill="#181818" points="464,1426.752,474,1430.752,464,1434.752,468,1430.752" style="stroke:#181818;stroke-width:1.0;"/><line style="stroke:#181818;stroke-width:1.0;" x1="99.5" x2="470" y1="1430.752" y2="1430.752"/><text fill="#000000" font-family="sans-serif" font-size="13" lengthAdjust="spacing" textLength="140" x="106.5" y="1426.0098">Update transfer status</text><path d="M30,1445.752 L97,1445.752 L97,1453.0625 L87,1463.0625 L30,1463.0625 L30,1445.752 " fill="#EEEEEE" style="stroke:#000000;stroke-width:1.5;"/><rect fill="none" height="46.6211" style="stroke:#000000;stroke-width:1.5;" width="697" x="30" y="1445.752"/><text fill="#000000" font-family="sans-serif" font-size="13" font-weight="bold" lengthAdjust="spacing" textLength="22" x="45" y="1459.3203">opt</text><text fill="#000000" font-family="sans-serif" font-size="11" font-weight="bold" lengthAdjust="spacing" textLength="196" x="112" y="1458.3867">[no documents - transfer finished]</text><polygon fill="#181818" points="655.5,1480.373,665.5,1484.373,655.5,1488.373,659.5,1484.373" style="stroke:#181818;stroke-width:1.0;"/><line style="stroke:#181818;stroke-width:1.0;" x1="99.5" x2="661.5" y1="1484.373" y2="1484.373"/><text fill="#000000" font-family="sans-serif" font-size="13" lengthAdjust="spacing" textLength="117" x="106.5" y="1479.6309">Enqueue Send ACK</text><path d="M30,1513.373 L251,1513.373 L251,1520.6836 L241,1530.6836 L30,1530.6836 L30,1513.373 " fill="#EEEEEE" style="stroke:#000000;stroke-width:1.5;"/><rect fill="none" height="134.5527" style="stroke:#000000;stroke-width:1.5;" width="1163.5" x="30" y="1513.373"/><text fill="#000000" font-family="sans-serif" font-size="13" font-weight="bold" lengthAdjust="spacing" textLength="176" x="45" y="1526.9414">Receive Continue Request</text><polygon fill="#181818" points="800.5,1547.9941,790.5,1551.9941,800.5,1555.9941,796.5,1551.9941" style="stroke:#181818;stroke-width:1.0;"/><line style="stroke:#181818;stroke-width:1.0;" x1="794.5" x2="1130.5" y1="1551.9941" y2="1551.9941"/><text fill="#000000" font-family="sans-serif" font-size="13" lengthAdjust="spacing" textLength="317" x="806.5" y="1547.252">Enqueue Continue Request (COPC_IN000001UK01)</text><polygon fill="#181818" points="777.5,1577.3047,787.5,1581.3047,777.5,1585.3047,781.5,1581.3047" style="stroke:#181818;stroke-width:1.0;"/><line style="stroke:#181818;stroke-width:1.0;" x1="99.5" x2="783.5" y1="1581.3047" y2="1581.3047"/><text fill="#000000" font-family="sans-serif" font-size="13" lengthAdjust="spacing" textLength="55" x="106.5" y="1576.5625">Dequeue</text><polygon fill="#181818" points="464,1606.6152,474,1610.6152,464,1614.6152,468,1610.6152" style="stroke:#181818;stroke-width:1.0;"/><line style="stroke:#181818;stroke-width:1.0;" x1="99.5" x2="470" y1="1610.6152" y2="1610.6152"/><text fill="#000000" font-family="sans-serif" font-size="13" lengthAdjust="spacing" textLength="140" x="106.5" y="1605.873">Update transfer status</text><polygon fill="#181818" points="655.5,1635.9258,665.5,1639.9258,655.5,1643.9258,659.5,1639.9258" style="stroke:#181818;stroke-width:1.0;"/><line style="stroke:#181818;stroke-width:1.0;" x1="99.5" x2="661.5" y1="1639.9258" y2="1639.9258"/><text fill="#000000" font-family="sans-serif" font-size="13" lengthAdjust="spacing" textLength="194" x="106.5" y="1635.1836">Enqueue Send Document tasks</text><path d="M10,1661.9258 L168,1661.9258 L168,1669.2363 L158,1679.2363 L10,1679.2363 L10,1661.9258 " fill="#EEEEEE" style="stroke:#000000;stroke-width:1.5;"/><rect fill="none" height="300.1055" style="stroke:#000000;stroke-width:1.5;" width="1193.5" x="10" y="1661.9258"/><text fill="#000000" font-family="sans-serif" font-size="13" font-weight="bold" lengthAdjust="spacing" textLength="113" x="25" y="1675.4941">Send Documents</text><path d="M20,1686.2363 L94,1686.2363 L94,1693.5469 L84,1703.5469 L20,1703.5469 L20,1686.2363 " fill="#EEEEEE" style="stroke:#000000;stroke-width:1.5;"/><rect fill="none" height="268.7949" style="stroke:#000000;stroke-width:1.5;" width="1173.5" x="20" y="1686.2363"/><text fill="#000000" font-family="sans-serif" font-size="13" font-weight="bold" lengthAdjust="spacing" textLength="29" x="35" y="1699.8047">loop</text><polygon fill="#181818" points="655.5,1720.8574,665.5,1724.8574,655.5,1728.8574,659.5,1724.8574" style="stroke:#181818;stroke-width:1.0;"/><line style="stroke:#181818;stroke-width:1.0;" x1="99.5" x2="661.5" y1="1724.8574" y2="1724.8574"/><text fill="#000000" font-family="sans-serif" font-size="13" lengthAdjust="spacing" textLength="55" x="106.5" y="1720.1152">Dequeue</text><polygon fill="#181818" points="553,1750.168,563,1754.168,553,1758.168,557,1754.168" style="stroke:#181818;stroke-width:1.0;"/><line style="stroke:#181818;stroke-width:1.0;" x1="99.5" x2="559" y1="1754.168" y2="1754.168"/><text fill="#000000" font-family="sans-serif" font-size="13" lengthAdjust="spacing" textLength="87" x="106.5" y="1749.4258">Download file</text><path d="M30,1769.168 L97,1769.168 L97,1776.4785 L87,1786.4785 L30,1786.4785 L30,1769.168 " fill="#EEEEEE" style="stroke:#000000;stroke-width:1.5;"/><rect fill="none" height="59.6211" style="stroke:#000000;stroke-width:1.5;" width="186" x="30" y="1769.168"/><text fill="#000000" font-family="sans-serif" font-size="13" font-weight="bold" lengthAdjust="spacing" textLength="22" x="45" y="1782.7363">opt</text><text fill="#000000" font-family="sans-serif" font-size="11" font-weight="bold" lengthAdjust="spacing" textLength="99" x="112" y="1781.8027">[Large Document]</text><line style="stroke:#181818;stroke-width:1.0;" x1="99.5" x2="141.5" y1="1807.7891" y2="1807.7891"/><line style="stroke:#181818;stroke-width:1.0;" x1="141.5" x2="141.5" y1="1807.7891" y2="1820.7891"/><line style="stroke:#181818;stroke-width:1.0;" x1="100.5" x2="141.5" y1="1820.7891" y2="1820.7891"/><polygon fill="#181818" points="110.5,1816.7891,100.5,1820.7891,110.5,1824.7891,106.5,1820.7891" style="stroke:#181818;stroke-width:1.0;"/><text fill="#000000" font-family="sans-serif" font-size="13" lengthAdjust="spacing" textLength="52" x="106.5" y="1803.0469">split file</text><polygon fill="#181818" points="1119.5,1853.0996,1129.5,1857.0996,1119.5,1861.0996,1123.5,1857.0996" style="stroke:#181818;stroke-width:1.0;"/><line style="stroke:#181818;stroke-width:1.0;" x1="99.5" x2="1125.5" y1="1857.0996" y2="1857.0996"/><text fill="#000000" font-family="sans-serif" font-size="13" lengthAdjust="spacing" textLength="143" x="106.5" y="1852.3574">Send document/chunk</text><polygon fill="#181818" points="464,1882.4102,474,1886.4102,464,1890.4102,468,1886.4102" style="stroke:#181818;stroke-width:1.0;"/><line style="stroke:#181818;stroke-width:1.0;" x1="99.5" x2="470" y1="1886.4102" y2="1886.4102"/><text fill="#000000" font-family="sans-serif" font-size="13" lengthAdjust="spacing" textLength="140" x="106.5" y="1881.668">Update transfer status</text><path d="M30,1901.4102 L97,1901.4102 L97,1908.7207 L87,1918.7207 L30,1918.7207 L30,1901.4102 " fill="#EEEEEE" style="stroke:#000000;stroke-width:1.5;"/><rect fill="none" height="46.6211" style="stroke:#000000;stroke-width:1.5;" width="697" x="30" y="1901.4102"/><text fill="#000000" font-family="sans-serif" font-size="13" font-weight="bold" lengthAdjust="spacing" textLength="22" x="45" y="1914.9785">opt</text><text fill="#000000" font-family="sans-serif" font-size="11" font-weight="bold" lengthAdjust="spacing" textLength="116" x="112" y="1914.0449">[All documents sent]</text><polygon fill="#181818" points="655.5,1936.0313,665.5,1940.0313,655.5,1944.0313,659.5,1940.0313" style="stroke:#181818;stroke-width:1.0;"/><line style="stroke:#181818;stroke-width:1.0;" x1="99.5" x2="661.5" y1="1940.0313" y2="1940.0313"/><text fill="#000000" font-family="sans-serif" font-size="13" lengthAdjust="spacing" textLength="117" x="106.5" y="1935.2891">Enqueue Send ACK</text><path d="M30,1976.0313 L140,1976.0313 L140,1983.3418 L130,1993.3418 L30,1993.3418 L30,1976.0313 " fill="#EEEEEE" style="stroke:#000000;stroke-width:1.5;"/><rect fill="none" height="134.5527" style="stroke:#000000;stroke-width:1.5;" width="1163.5" x="30" y="1976.0313"/><text fill="#000000" font-family="sans-serif" font-size="13" font-weight="bold" lengthAdjust="spacing" textLength="65" x="45" y="1989.5996">Send ACK</text><polygon fill="#181818" points="655.5,2010.6523,665.5,2014.6523,655.5,2018.6523,659.5,2014.6523" style="stroke:#181818;stroke-width:1.0;"/><line style="stroke:#181818;stroke-width:1.0;" x1="99.5" x2="661.5" y1="2014.6523" y2="2014.6523"/><text fill="#000000" font-family="sans-serif" font-size="13" lengthAdjust="spacing" textLength="55" x="106.5" y="2009.9102">Dequeue</text><polygon fill="#181818" points="464,2039.9629,474,2043.9629,464,2047.9629,468,2043.9629" style="stroke:#181818;stroke-width:1.0;"/><line style="stroke:#181818;stroke-width:1.0;" x1="99.5" x2="470" y1="2043.9629" y2="2043.9629"/><text fill="#000000" font-family="sans-serif" font-size="13" lengthAdjust="spacing" textLength="140" x="106.5" y="2039.2207">Update transfer status</text><polygon fill="#181818" points="1119.5,2069.2734,1129.5,2073.2734,1119.5,2077.2734,1123.5,2073.2734" style="stroke:#181818;stroke-width:1.0;"/><line style="stroke:#181818;stroke-width:1.0;" x1="99.5" x2="1125.5" y1="2073.2734" y2="2073.2734"/><text fill="#000000" font-family="sans-serif" font-size="13" lengthAdjust="spacing" textLength="207" x="106.5" y="2068.5313">Send ACK (MCCI_IN010000UK13)</text><polygon fill="#181818" points="464,2098.584,474,2102.584,464,2106.584,468,2102.584" style="stroke:#181818;stroke-width:1.0;"/><line style="stroke:#181818;stroke-width:1.0;" x1="99.5" x2="470" y1="2102.584" y2="2102.584"/><text fill="#000000" font-family="sans-serif" font-size="13" lengthAdjust="spacing" textLength="140" x="106.5" y="2097.8418">Update transfer status</text><path d="M30,2124.584 L238,2124.584 L238,2131.8945 L228,2141.8945 L30,2141.8945 L30,2124.584 " fill="#EEEEEE" style="stroke:#000000;stroke-width:1.5;"/><rect fill="none" height="105.2422" style="stroke:#000000;stroke-width:1.5;" width="1163.5" x="30" y="2124.584"/><text fill="#000000" font-family="sans-serif" font-size="13" font-weight="bold" lengthAdjust="spacing" textLength="163" x="45" y="2138.1523">Receive final ACK/NACK</text><polygon fill="#181818" points="800.5,2159.2051,790.5,2163.2051,800.5,2167.2051,796.5,2163.2051" style="stroke:#181818;stroke-width:1.0;"/><line style="stroke:#181818;stroke-width:1.0;" x1="794.5" x2="1130.5" y1="2163.2051" y2="2163.2051"/><text fill="#000000" font-family="sans-serif" font-size="13" lengthAdjust="spacing" textLength="318" x="806.5" y="2158.4629">Enqueue acknowledgement (MCCI_IN010000UK13)</text><polygon fill="#181818" points="777.5,2188.5156,787.5,2192.5156,777.5,2196.5156,781.5,2192.5156" style="stroke:#181818;stroke-width:1.0;"/><line style="stroke:#181818;stroke-width:1.0;" x1="99.5" x2="783.5" y1="2192.5156" y2="2192.5156"/><text fill="#000000" font-family="sans-serif" font-size="13" lengthAdjust="spacing" textLength="55" x="106.5" y="2187.7734">Dequeue</text><polygon fill="#181818" points="464,2217.8262,474,2221.8262,464,2225.8262,468,2221.8262" style="stroke:#181818;stroke-width:1.0;"/><line style="stroke:#181818;stroke-width:1.0;" x1="99.5" x2="470" y1="2221.8262" y2="2221.8262"/><text fill="#000000" font-family="sans-serif" font-size="13" lengthAdjust="spacing" textLength="140" x="106.5" y="2217.084">Update transfer status</text><!--SRC=[pLPDRzim3BtxLn353ksXQzDY6v33WDH9aw1VGPAUXc5GRSOneaYU9QyRXlttKP8TsudpjUsmNEgQZzGZ-KWvOQcEWpXXGiD9VtJL7q4dP8cMwGam1L5o5ILUKWVvu4kXiYKMcC0BcMOlJ24yI179xervlpIFfUNaDkO8YYAp2ArZ_knzpJ0Z-vIf1TXdQzNqRs4QYXUPYR1YZTsREhM7mQJ6VZbNdXUbCajWZ076tn1wWp7qlkkK1PhUKJobFJ10EFzO16r3JxY33Jf7mUdOVnX_6JvUjYxfztnt-UwCF6s1QhvTjBvLcwr46oQC20Xy1JfUg1ccLOn9jpoutvk2AVH4frcWinHTEP0opXFgewuZDeCrCA5UjM7qD9d2cv_q_7OPHodJk0eIzaIOo5ZeNzOhW7FhHDvjk1qCnt13EVAraDOwDJbnYkLmMiBW_eD7G2vbGd_sfjgL0KbAwBpp03RPm_mxBueyeQCr2-PDGTPRyPo4XchH298YqvaoI9aOOGGo3PtLf1G28_492M71SHUX2PrfbUDBwbiXjWgVjIwkWjfJc4k5LLBvH29dd2F_d9TZisPrFhRB1bFOFMjdN8FAWW2Lms_fS2nO-cC5o4FcisegnoKBoyW6XPpcUyPYxcIuniM6zbCq1Tze52IS1JYNFBJZiFFC3MTtkElmCJrsNUvmlh_sH3lSACOH_NRyQcA6KOhKKMmuplkhqXrPkF- -NfKvQVJncbBkobTXawvi-gCMW9cIUvP6k1QXeJ5ocQGqJDk1wuqeFB16prnLONMUIh9prIvpB-2J1NBKKfHNqdL-9RqtLvATnZ566MSfO1Ejvh1ReXsrG9rIgfiIpalGB1QnccEuTtjs_BjD3HHNE7ryw5XaUC3zlGw5K_zfv9iSpQz5ERQElSIt9huhds9RMflQ47PrZM-xxaf6ErK_eu-iScITZckxUbF6Ak6nTevRzkbABaLNBu9v9XR_O8ke1bfRzR1hDpZ4_W-WWxjO9asXuVJ1zuULZx_MzTdXKHiqJ9F0k8byyUYORrCm2nP2ld8C8xG2saFapmLiIFu6]--></g></svg>